/* XPM */
static char * bitcoin64_xpm[] = {
"64 64 238 2",
"  	c None",
". 	c #00AEEF",
"+ 	c #9CB3C5",
"@ 	c #FDBB30",
"# 	c #4FAFE5",
"$ 	c #E5B975",
"% 	c #BDB5AD",
"& 	c #88B1D1",
"* 	c #1EAEED",
"= 	c #F7BA45",
"- 	c #D7B78E",
"; 	c #ACB4BB",
"> 	c #64B0DF",
", 	c #EEB963",
"' 	c #C7B6A0",
") 	c #95B2CB",
"! 	c #3FAFE8",
"~ 	c #FCBB32",
"{ 	c #DFB881",
"] 	c #008FC5",
"^ 	c #00A2DE",
"/ 	c #B7B5B2",
"( 	c #0090C6",
"_ 	c #00A7E5",
": 	c #81AFD3",
"< 	c #0092C9",
"[ 	c #00ABEA",
"} 	c #60A0DD",
"| 	c #B077A4",
"1 	c #DC3245",
"2 	c #FBB52F",
"3 	c #0095CD",
"4 	c #00ADED",
"5 	c #19ADED",
"6 	c #8990C6",
"7 	c #C65D81",
"8 	c #E31B23",
"9 	c #F59C2C",
"0 	c #009AD4",
"a 	c #4DA5E3",
"b 	c #A67EAE",
"c 	c #D93C53",
"d 	c #ED7928",
"e 	c #00A0DC",
"f 	c #7B97CF",
"g 	c #BF678F",
"h 	c #E21D27",
"i 	c #E64625",
"j 	c #00A6E4",
"k 	c #3FA9E8",
"l 	c #9D85B8",
"m 	c #D34864",
"n 	c #F9AC2E",
"o 	c #0091C7",
"p 	c #00AAE9",
"q 	c #6C9CD7",
"r 	c #B6709B",
"s 	c #DF2938",
"t 	c #F28F2B",
"u 	c #FDBD2D",
"v 	c #0094CB",
"w 	c #00ACED",
"x 	c #2AABEB",
"y 	c #928CC0",
"z 	c #CC5575",
"A 	c #EB6B27",
"B 	c #FEC228",
"C 	c #FFD008",
"D 	c #FFD200",
"E 	c #0098D2",
"F 	c #5AA1DE",
"G 	c #AD79A7",
"H 	c #DC354A",
"I 	c #E42C24",
"J 	c #FCB930",
"K 	c #FDBB2F",
"L 	c #FEC81F",
"M 	c #009ED9",
"N 	c #0AADEE",
"O 	c #8692C9",
"P 	c #C56084",
"Q 	c #E31B22",
"R 	c #F6A22D",
"S 	c #FDBE2D",
"T 	c #FFCD13",
"U 	c #1594BD",
"V 	c #8096AB",
"W 	c #D83F58",
"X 	c #EF842A",
"Y 	c #FEC326",
"Z 	c #FFD105",
"` 	c #289BAF",
" .	c #44AC82",
"..	c #53B94B",
"+.	c #5EB647",
"@.	c #CF5B2D",
"#.	c #E85425",
"$.	c #FDBC2F",
"%.	c #FEC91C",
"&.	c #0F92C0",
"*.	c #36A39E",
"=.	c #4DB368",
"-.	c #54B948",
";.	c #70AF45",
">.	c #DA4028",
",.	c #FBB22F",
"'.	c #FDBF2B",
").	c #FFCE0F",
"!.	c #2298B5",
"~.	c #41AA8A",
"{.	c #52B752",
"].	c #88A441",
"^.	c #E02824",
"/.	c #F4972C",
"(.	c #FEC424",
"_.	c #FFD104",
":.	c #0791C2",
"<.	c #32A0A4",
"[.	c #4AB172",
"}.	c #A1933C",
"|.	c #EC7428",
"1.	c #FECB19",
"2.	c #1B95BA",
"3.	c #3EA891",
"4.	c #51B659",
"5.	c #B87C36",
"6.	c #E53D24",
"7.	c #FDC02A",
"8.	c #FFCF0C",
"9.	c #59B748",
"0.	c #CB622F",
"a.	c #F8A92E",
"b.	c #FEC622",
"c.	c #FFD102",
"d.	c #69B246",
"e.	c #D84929",
"f.	c #F18D27",
"g.	c #FECC16",
"h.	c #7FA843",
"i.	c #E02E25",
"j.	c #E62E2B",
"k.	c #F27832",
"l.	c #98993E",
"m.	c #E31C23",
"n.	c #EA3A31",
"o.	c #F04D3C",
"p.	c #FECC09",
"q.	c #B18438",
"r.	c #E52427",
"s.	c #ED4537",
"t.	c #FAB420",
"u.	c #55B948",
"v.	c #C66A31",
"w.	c #E7302C",
"x.	c #EF4B3B",
"y.	c #F6932E",
"z.	c #61B547",
"A.	c #D54F2B",
"B.	c #E31E24",
"C.	c #EB3D33",
"D.	c #F26638",
"E.	c #76AC44",
"F.	c #DE3426",
"G.	c #E52728",
"H.	c #EE4738",
"I.	c #FDC413",
"J.	c #8F9F40",
"K.	c #E21E23",
"L.	c #E8342E",
"M.	c #EF4C3B",
"N.	c #F8A726",
"O.	c #AA8B3A",
"P.	c #E41F24",
"Q.	c #EB4034",
"R.	c #F48532",
"S.	c #C07333",
"T.	c #E62A29",
"U.	c #EE4839",
"V.	c #F1553B",
"W.	c #FFD002",
"X.	c #5FB647",
"Y.	c #D0592D",
"Z.	c #E93730",
"`.	c #F04C3B",
" +	c #FBB91D",
".+	c #59BA47",
"++	c #91B941",
"@+	c #E95F3C",
"#+	c #F79D2B",
"$+	c #65BC46",
"%+	c #88C540",
"&+	c #8DC63F",
"*+	c #ABB23E",
"=+	c #EE513C",
"-+	c #F37236",
";+	c #74C044",
">+	c #BDA23E",
",+	c #FEC90D",
"'+	c #5CBA47",
")+	c #82C341",
"!+	c #CF8E3D",
"~+	c #FAAF22",
"{+	c #69BD45",
"]+	c #8AC540",
"^+	c #8FC43F",
"/+	c #DD783D",
"(+	c #F58D30",
"_+	c #56B948",
":+	c #78C043",
"<+	c #99BF3F",
"[+	c #E7653C",
"}+	c #F16039",
"|+	c #5EBB47",
"1+	c #84C441",
"2+	c #A6B63E",
"3+	c #ED563C",
"4+	c #FCC017",
"5+	c #6CBE45",
"6+	c #8BC53F",
"7+	c #B7A83E",
"8+	c #F8A328",
"9+	c #57BA48",
"0+	c #7BC143",
"a+	c #CA943D",
"b+	c #F48033",
"c+	c #61BB46",
"d+	c #86C440",
"e+	c #8EC53F",
"f+	c #DA7E3D",
"g+	c #F0523B",
"h+	c #6EBE45",
"i+	c #8CC63F",
"j+	c #95C13F",
"k+	c #E5693C",
"l+	c #A1BA3F",
"m+	c #EC583C",
"n+	c #B1AD3E",
"o+	c #C8973D",
"                                                                                                                                ",
"                                                                                                                                ",
"                                                                                                                                ",
"                                                  . . . . . . . . . . + @ @ @                                                   ",
"                                            . . . . . . . . . . . . . # @ @ @ @ @ @                                             ",
"                                      . . . . . . . . . . . . . . . . . $ @ @ @ @ @ @ @ @                                       ",
"                                  . . . . . . . . . . . . . . . . . . . % @ @ @ @ @ @ @ @ @ @                                   ",
"                                . . . . . . . . . . . . . . . . . . . . & @ @ @ @ @ @ @ @ @ @ @                                 ",
"                            . . . . . . . . . . . . . . . . . . . . . . * = @ @ @ @ @ @ @ @ @ @ @ @                             ",
"                          . . . . . . . . . . . . . . . . . . . . . . . . - @ @ @ @ @ @ @ @ @ @ @ @ @                           ",
"                        . . . . . . . . . . . . . . . . . . . . . . . . . ; @ @ @ @ @ @ @ @ @ @ @ @ @ @                         ",
"                      . . . . . . . . . . . . . . . . . . . . . . . . . . > @ @ @ @ @ @ @ @ @ @ @ @ @ @ @                       ",
"                    . . . . . . . . . . . . . . . . . . . . . . . . . . . . , @ @ @ @ @ @ @ @ @ @ @ @ @ @ @                     ",
"                  . . . . . . . . . . . . . . . . . . . . . . . . . . . . . ' @ @ @ @ @ @ @ @ @ @ @ @ @ @ @ @                   ",
"                . . . . . . . . . . . . . . . . . . . . . . . . . . . . . . ) @ @ @ @ @ @ @ @ @ @ @ @ @ @ @ @ @                 ",
"                . . . . . . . . . . . . . . . . . . . . . . . . . . . . . . ! ~ @ @ @ @ @ @ @ @ @ @ @ @ @ @ @ @                 ",
"              . . . . . . . . . . . . . . . . . . . . . . . . . . . . . . . . { @ @ @ @ @ @ @ @ @ @ @ @ @ @ @ @ @               ",
"            ] ^ . . . . . . . . . . . . . . . . . . . . . . . . . . . . . . . / @ @ @ @ @ @ @ @ @ @ @ @ @ @ @ @ @ @             ",
"            ] ( _ . . . . . . . . . . . . . . . . . . . . . . . . . . . . . . : @ @ @ @ @ @ @ @ @ @ @ @ @ @ @ @ @ @             ",
"          ] ] ] < [ . . . . . . . . . . . . . . . . . . . . . . . . . . . } | 1 2 @ @ @ @ @ @ @ @ @ @ @ @ @ @ @ @ @ @           ",
"          ] ] ] ] 3 4 . . . . . . . . . . . . . . . . . . . . . . . 5 6 7 8 8 8 9 @ @ @ @ @ @ @ @ @ @ @ @ @ @ @ @ @ @           ",
"          ] ] ] ] ] 0 . . . . . . . . . . . . . . . . . . . . . a b c 8 8 8 8 8 d @ @ @ @ @ @ @ @ @ @ @ @ @ @ @ @ @ @           ",
"        ] ] ] ] ] ] ] e . . . . . . . . . . . . . . . . . . f g h 8 8 8 8 8 8 8 i @ @ @ @ @ @ @ @ @ @ @ @ @ @ @ @ @ @ @         ",
"        ] ] ] ] ] ] ] ] j . . . . . . . . . . . . . . k l m 8 8 8 8 8 8 8 8 8 8 8 n @ @ @ @ @ @ @ @ @ @ @ @ @ @ @ @ @ @         ",
"        ] ] ] ] ] ] ] ] o p . . . . . . . . . . . q r s 8 8 8 8 8 8 8 8 8 8 8 8 8 t @ @ @ @ @ @ @ @ @ @ @ @ @ @ @ @ @ u         ",
"      ] ] ] ] ] ] ] ] ] ] v w . . . . . . . x y z 8 8 8 8 8 8 8 8 8 8 8 8 8 8 8 8 A @ @ @ @ @ @ @ @ @ @ @ @ @ @ @ @ B C D       ",
"      ] ] ] ] ] ] ] ] ] ] ] E . . . . . F G H 8 8 8 8 8 8 8 8 8 8 8 8 8 8 8 8 8 8 I J @ @ @ @ @ @ @ @ @ @ @ @ @ K L D D D       ",
"      ] ] ] ] ] ] ] ] ] ] ] ] M . N O P Q 8 8 8 8 8 8 8 8 8 8 8 8 8 8 8 8 8 8 8 8 8 R @ @ @ @ @ @ @ @ @ @ @ @ S T D D D D       ",
"      ] ] ] ] ] ] ] ] ] ] ] ] U V W 8 8 8 8 8 8 8 8 8 8 8 8 8 8 8 8 8 8 8 8 8 8 8 8 X @ @ @ @ @ @ @ @ @ @ @ Y Z D D D D D       ",
"      ] ] ] ] ] ] ] ] ] ] `  ...+.@.8 8 8 8 8 8 8 8 8 8 8 8 8 8 8 8 8 8 8 8 8 8 8 8 #.@ @ @ @ @ @ @ @ @ $.%.D D D D D D D       ",
"      ] ] ] ] ] ] ] &.*.=.-.-.-.-.;.>.8 8 8 8 8 8 8 8 8 8 8 8 8 8 8 8 8 8 8 8 8 8 8 8 ,.@ @ @ @ @ @ @ '.).D D D D D D D D       ",
"      ] ] ] ] ] !.~.{.-.-.-.-.-.-.-.].^.8 8 8 8 8 8 8 8 8 8 8 8 8 8 8 8 8 8 8 8 8 8 8 /.@ @ @ @ @ @ (._.D D D D D D D D D       ",
"      ] ] :.<.[.-.-.-.-.-.-.-.-.-.-.-.}.8 8 8 8 8 8 8 8 8 8 8 8 8 8 8 8 8 8 8 8 8 8 8 |.@ @ @ @ $.1.D D D D D D D D D D D       ",
"      2.3.4.-.-.-.-.-.-.-.-.-.-.-.-.-.-.5.8 8 8 8 8 8 8 8 8 8 8 8 8 8 8 8 8 8 8 8 8 8 6.@ @ @ 7.8.D D D D D D D D D D D D       ",
"      -.-.-.-.-.-.-.-.-.-.-.-.-.-.-.-.-.9.0.8 8 8 8 8 8 8 8 8 8 8 8 8 8 8 8 8 8 8 8 8 8 a.@ b.c.D D D D D D D D D D D D D       ",
"      -.-.-.-.-.-.-.-.-.-.-.-.-.-.-.-.-.-.d.e.8 8 8 8 8 8 8 8 8 8 8 8 8 8 8 8 8 8 8 8 8 f.g.D D D D D D D D D D D D D D D       ",
"      -.-.-.-.-.-.-.-.-.-.-.-.-.-.-.-.-.-.-.h.i.8 8 8 8 8 8 8 8 8 8 8 8 8 8 8 8 8 8 8 j.k.D D D D D D D D D D D D D D D D       ",
"      -.-.-.-.-.-.-.-.-.-.-.-.-.-.-.-.-.-.-.-.l.8 8 8 8 8 8 8 8 8 8 8 8 8 8 8 8 8 m.n.o.o.p.D D D D D D D D D D D D D D D       ",
"      -.-.-.-.-.-.-.-.-.-.-.-.-.-.-.-.-.-.-.-.-.q.8 8 8 8 8 8 8 8 8 8 8 8 8 8 8 r.s.o.o.o.t.D D D D D D D D D D D D D D D       ",
"        -.-.-.-.-.-.-.-.-.-.-.-.-.-.-.-.-.-.-.-.u.v.8 8 8 8 8 8 8 8 8 8 8 8 8 w.x.o.o.o.o.y.D D D D D D D D D D D D D D         ",
"        -.-.-.-.-.-.-.-.-.-.-.-.-.-.-.-.-.-.-.-.-.z.A.8 8 8 8 8 8 8 8 8 8 B.C.o.o.o.o.o.o.D.D D D D D D D D D D D D D D         ",
"        -.-.-.-.-.-.-.-.-.-.-.-.-.-.-.-.-.-.-.-.-.-.E.F.8 8 8 8 8 8 8 8 G.H.o.o.o.o.o.o.o.o.I.D D D D D D D D D D D D D         ",
"          -.-.-.-.-.-.-.-.-.-.-.-.-.-.-.-.-.-.-.-.-.-.J.K.8 8 8 8 8 8 L.M.o.o.o.o.o.o.o.o.o.N.D D D D D D D D D D D D           ",
"          -.-.-.-.-.-.-.-.-.-.-.-.-.-.-.-.-.-.-.-.-.-.-.O.8 8 8 8 P.Q.o.o.o.o.o.o.o.o.o.o.o.R.D D D D D D D D D D D D           ",
"          -.-.-.-.-.-.-.-.-.-.-.-.-.-.-.-.-.-.-.-.-.-.-.-.S.8 8 T.U.o.o.o.o.o.o.o.o.o.o.o.o.V.W.D D D D D D D D D D D           ",
"            -.-.-.-.-.-.-.-.-.-.-.-.-.-.-.-.-.-.-.-.-.-.-.X.Y.Z.`.o.o.o.o.o.o.o.o.o.o.o.o.o.o. +D D D D D D D D D D             ",
"            -.-.-.-.-.-.-.-.-.-.-.-.-.-.-.-.-.-.-.-.-.-.-..+++@+o.o.o.o.o.o.o.o.o.o.o.o.o.o.o.#+D D D D D D D D D D             ",
"              -.-.-.-.-.-.-.-.-.-.-.-.-.-.-.-.-.-.-.-.-.$+%+&+*+=+o.o.o.o.o.o.o.o.o.o.o.o.o.o.-+D D D D D D D D D               ",
"                -.-.-.-.-.-.-.-.-.-.-.-.-.-.-.-.-.-.-.;+&+&+&+&+>+o.o.o.o.o.o.o.o.o.o.o.o.o.o.o.,+D D D D D D D                 ",
"                -.-.-.-.-.-.-.-.-.-.-.-.-.-.-.-.-.'+)+&+&+&+&+&+&+!+o.o.o.o.o.o.o.o.o.o.o.o.o.o.~+D D D D D D D                 ",
"                  -.-.-.-.-.-.-.-.-.-.-.-.-.-.-.{+]+&+&+&+&+&+&+&+^+/+o.o.o.o.o.o.o.o.o.o.o.o.o.(+D D D D D D                   ",
"                    -.-.-.-.-.-.-.-.-.-.-.-._+:+&+&+&+&+&+&+&+&+&+&+<+[+o.o.o.o.o.o.o.o.o.o.o.o.}+D D D D D                     ",
"                      -.-.-.-.-.-.-.-.-.-.|+1+&+&+&+&+&+&+&+&+&+&+&+&+2+3+o.o.o.o.o.o.o.o.o.o.o.o.4+D D D                       ",
"                        -.-.-.-.-.-.-.-.5+6+&+&+&+&+&+&+&+&+&+&+&+&+&+&+7+o.o.o.o.o.o.o.o.o.o.o.o.8+D D                         ",
"                          -.-.-.-.-.9+0+&+&+&+&+&+&+&+&+&+&+&+&+&+&+&+&+&+a+o.o.o.o.o.o.o.o.o.o.o.b+D                           ",
"                            -.-.-.c+d+&+&+&+&+&+&+&+&+&+&+&+&+&+&+&+&+&+&+e+f+o.o.o.o.o.o.o.o.o.o.g+                            ",
"                                h+i+&+&+&+&+&+&+&+&+&+&+&+&+&+&+&+&+&+&+&+&+j+k+o.o.o.o.o.o.o.o.                                ",
"                                  &+&+&+&+&+&+&+&+&+&+&+&+&+&+&+&+&+&+&+&+&+&+l+m+o.o.o.o.o.o.                                  ",
"                                      &+&+&+&+&+&+&+&+&+&+&+&+&+&+&+&+&+&+&+&+&+n+o.o.o.o.                                      ",
"                                            &+&+&+&+&+&+&+&+&+&+&+&+&+&+&+&+&+&+&+o+                                            ",
"                                                  &+&+&+&+&+&+&+&+&+&+&+&+&+&+                                                  ",
"                                                                                                                                ",
"                                                                                                                                ",
"                                                                                                                                "};
