/* XPM */
static char * bitcoin32_xpm[] = {
"32 32 118 2",
"  	c None",
". 	c #00AEEF",
"+ 	c #79B1DA",
"@ 	c #08AEEE",
"# 	c #F7BA4A",
"$ 	c #FDBB30",
"% 	c #D7B790",
"& 	c #ABB4BC",
"* 	c #62B0E1",
"= 	c #EEB966",
"- 	c #C6B6A5",
"; 	c #00A3E0",
"> 	c #95B2CC",
", 	c #008FC5",
"' 	c #00A5E3",
") 	c #30ABEB",
"! 	c #9D8DB9",
"~ 	c #0090C7",
"{ 	c #00A9E8",
"] 	c #5EA1DE",
"^ 	c #AF78A6",
"/ 	c #DC3549",
"( 	c #E31B23",
"_ 	c #F7A42D",
": 	c #0093CB",
"< 	c #00ACEC",
"[ 	c #0BAEEE",
"} 	c #8891C8",
"| 	c #C75F84",
"1 	c #F0882A",
"2 	c #0097D0",
"3 	c #4AA7E5",
"4 	c #A57FB0",
"5 	c #DA3D55",
"6 	c #E95D26",
"7 	c #FEC327",
"8 	c #009DD8",
"9 	c #7A98D2",
"0 	c #BD6992",
"a 	c #E21D26",
"b 	c #FBB42F",
"c 	c #FDBC2F",
"d 	c #FEC91D",
"e 	c #FFD200",
"f 	c #1192C0",
"g 	c #37A39E",
"h 	c #AB856C",
"i 	c #F59C2C",
"j 	c #FDBF2C",
"k 	c #FFCE10",
"l 	c #2398B5",
"m 	c #42AA89",
"n 	c #52B852",
"o 	c #54B948",
"p 	c #5EB647",
"q 	c #CD612E",
"r 	c #ED7828",
"s 	c #FEC425",
"t 	c #FFD104",
"u 	c #0F92C0",
"v 	c #33A0A5",
"w 	c #4BB171",
"x 	c #70AF45",
"y 	c #D84829",
"z 	c #E64525",
"A 	c #FECB19",
"B 	c #86A542",
"C 	c #DF3025",
"D 	c #F9B228",
"E 	c #FFCF0D",
"F 	c #9E963D",
"G 	c #E93830",
"H 	c #F8A427",
"I 	c #B68037",
"J 	c #E42125",
"K 	c #EC4236",
"L 	c #F04D3C",
"M 	c #F48433",
"N 	c #55B848",
"O 	c #CB652F",
"P 	c #E62D2B",
"Q 	c #EF493A",
"R 	c #F0523B",
"S 	c #FECF05",
"T 	c #64B446",
"U 	c #D84A29",
"V 	c #EA3A31",
"W 	c #FBB81E",
"X 	c #7BAB43",
"Y 	c #E13629",
"Z 	c #ED4437",
"` 	c #F79C2C",
" .	c #69BD45",
"..	c #B1AA3F",
"+.	c #F26F37",
"@.	c #57B948",
"#.	c #78C043",
"$.	c #8DC63F",
"%.	c #C6993E",
"&.	c #FDC80F",
"*.	c #5EBB47",
"=.	c #84C441",
"-.	c #D7833D",
";.	c #F9AE24",
">.	c #6CBE45",
",.	c #8BC63F",
"'.	c #93C33F",
").	c #E36D3D",
"!.	c #F58B31",
"~.	c #57BA48",
"{.	c #7CC142",
"].	c #9EBC3F",
"^.	c #EB5A3C",
"/.	c #F16139",
"(.	c #82C341",
"_.	c #ADB13E",
":.	c #F04E3C",
"<.	c #C0A03E",
"                                                                ",
"                            . . . +                             ",
"                    . . . . . . . @ # $ $ $                     ",
"                . . . . . . . . . . % $ $ $ $ $                 ",
"              . . . . . . . . . . . & $ $ $ $ $ $               ",
"            . . . . . . . . . . . . * $ $ $ $ $ $ $             ",
"          . . . . . . . . . . . . . . = $ $ $ $ $ $ $           ",
"        . . . . . . . . . . . . . . . - $ $ $ $ $ $ $ $         ",
"      ; . . . . . . . . . . . . . . . > $ $ $ $ $ $ $ $ $       ",
"      , ' . . . . . . . . . . . . . ) ! $ $ $ $ $ $ $ $ $       ",
"    , , ~ { . . . . . . . . . . ] ^ / ( _ $ $ $ $ $ $ $ $ $     ",
"    , , , : < . . . . . . [ } | ( ( ( ( 1 $ $ $ $ $ $ $ $ $     ",
"    , , , , 2 . . . . 3 4 5 ( ( ( ( ( ( 6 $ $ $ $ $ $ $ $ 7     ",
"    , , , , , 8 . 9 0 a ( ( ( ( ( ( ( ( ( b $ $ $ $ $ c d e     ",
"  , , , , , f g h ( ( ( ( ( ( ( ( ( ( ( ( i $ $ $ $ j k e e e   ",
"  , , , l m n o p q ( ( ( ( ( ( ( ( ( ( ( r $ $ $ s t e e e e   ",
"  u v w o o o o o x y ( ( ( ( ( ( ( ( ( ( z $ c A e e e e e e   ",
"  o o o o o o o o o B C ( ( ( ( ( ( ( ( ( ( D E e e e e e e e   ",
"    o o o o o o o o o F ( ( ( ( ( ( ( ( ( G H e e e e e e e     ",
"    o o o o o o o o o o I ( ( ( ( ( ( J K L M e e e e e e e     ",
"    o o o o o o o o o o N O ( ( ( ( P Q L L R S e e e e e e     ",
"    o o o o o o o o o o o T U ( ( V L L L L L W e e e e e e     ",
"      o o o o o o o o o o o X Y Z L L L L L L ` e e e e e       ",
"      o o o o o o o o o o o  ...L L L L L L L +.e e e e e       ",
"        o o o o o o o o @.#.$.$.%.L L L L L L L &.e e e         ",
"          o o o o o o *.=.$.$.$.$.-.L L L L L L ;.e e           ",
"            o o o o >.,.$.$.$.$.$.'.).L L L L L !.e             ",
"              o ~.{.$.$.$.$.$.$.$.$.].^.L L L L /.              ",
"                (.$.$.$.$.$.$.$.$.$.$._.:.L L L                 ",
"                    $.$.$.$.$.$.$.$.$.$.<.L                     ",
"                            $.$.$.$.                            ",
"                                                                "};
