/* XPM */
static char * bitcoin16_xpm[] = {
"16 16 59 1",
" 	c None",
".	c #00AEEF",
"+	c #F4BA57",
"@	c #FDBB30",
"#	c #D2B798",
"$	c #9FB3C6",
"%	c #00ACEC",
"&	c #6BA8DC",
"*	c #008FC5",
"=	c #0097D0",
"-	c #7B98D1",
";	c #BF6A93",
">	c #E31B23",
",	c #F9AC2E",
"'	c #009DD8",
")	c #41A8E7",
"!	c #9D87BA",
"~	c #D24D6B",
"{	c #F18C2A",
"]	c #FEC621",
"^	c #2499B4",
"/	c #42AA8A",
"(	c #B6804B",
"_	c #EB6B27",
":	c #FDBD2D",
"<	c #FECC16",
"[	c #FFD200",
"}	c #4BB171",
"|	c #54B948",
"1	c #5FB647",
"2	c #CC632F",
"3	c #E32123",
"4	c #FDBF28",
"5	c #FFD008",
"6	c #70B045",
"7	c #D84A29",
"8	c #E31C23",
"9	c #EA3B32",
"0	c #FBB71F",
"a	c #84A642",
"b	c #DF3025",
"c	c #E52527",
"d	c #ED4638",
"e	c #F04D3C",
"f	c #F79A2C",
"g	c #A79D3D",
"h	c #EF4C3B",
"i	c #F26A38",
"j	c #57BA48",
"k	c #7AC143",
"l	c #8DC63F",
"m	c #CB933D",
"n	c #FDC811",
"o	c #60BB47",
"p	c #86C441",
"q	c #DB7C3D",
"r	c #F8A229",
"s	c #93C23F",
"t	c #E6693C",
"                ",
"     ....+@     ",
"   ......#@@@   ",
"  .......$@@@@  ",
"  %......&@@@@  ",
" *=....-;>,@@@@ ",
" **')!~>>>{@@@] ",
" *^/(>>>>>_@:<[ ",
" }||12>>>>345[[ ",
" ||||67>>890[[[ ",
" |||||abcdef[[[ ",
"  |||||gheei[[  ",
"  |||jklmeeen[  ",
"   |oplllqeer   ",
"     llllst     ",
"                "};
